<svg xmlns="http://www.w3.org/2000/svg" xmlns:xlink="http://www.w3.org/1999/xlink" width="1920" zoomAndPan="magnify" viewBox="0 0 1440 675.000002" height="900" preserveAspectRatio="xMidYMid meet" version="1.0"><defs><clipPath id="3dc8d56073"><path d="M 585.199219 202.199219 L 854.800781 202.199219 L 854.800781 471.800781 L 585.199219 471.800781 Z M 585.199219 202.199219 " clip-rule="nonzero"/></clipPath></defs><g clip-path="url(#3dc8d56073)"><path fill="#d7b0d3" d="M 796.527344 319.851562 L 785.078125 319.320312 C 784.632812 319.296875 784.316406 319.050781 784.195312 318.621094 C 782.800781 313.761719 780.851562 309.046875 778.382812 304.609375 C 778.164062 304.21875 778.210938 303.820312 778.511719 303.492188 L 786.238281 295.015625 C 789.003906 291.980469 788.898438 287.320312 785.992188 284.410156 L 772.589844 271.011719 C 769.679688 268.101562 765.019531 267.996094 761.984375 270.765625 L 753.511719 278.488281 C 753.179688 278.789062 752.78125 278.835938 752.386719 278.617188 C 747.949219 276.152344 743.234375 274.199219 738.375 272.804688 C 737.945312 272.683594 737.691406 272.371094 737.675781 271.921875 L 737.144531 260.476562 C 736.953125 256.371094 733.585938 253.15625 729.476562 253.15625 L 710.523438 253.15625 C 706.414062 253.15625 703.039062 256.371094 702.855469 260.476562 L 702.324219 271.925781 C 702.300781 272.375 702.054688 272.6875 701.625 272.8125 C 696.757812 274.203125 692.050781 276.15625 687.613281 278.621094 C 687.222656 278.839844 686.824219 278.796875 686.488281 278.492188 L 678.015625 270.769531 C 674.980469 268 670.320312 268.105469 667.410156 271.015625 L 654.007812 284.417969 C 651.101562 287.324219 650.996094 291.980469 653.761719 295.023438 L 661.488281 303.496094 C 661.789062 303.828125 661.835938 304.230469 661.617188 304.621094 C 659.148438 309.050781 657.199219 313.765625 655.804688 318.632812 C 655.683594 319.0625 655.367188 319.316406 654.921875 319.332031 L 643.472656 319.863281 C 639.367188 320.054688 636.148438 323.425781 636.148438 327.535156 L 636.148438 346.488281 C 636.148438 350.597656 639.367188 353.972656 643.472656 354.160156 L 654.921875 354.691406 C 655.367188 354.714844 655.683594 354.960938 655.804688 355.390625 C 657.199219 360.253906 659.148438 364.96875 661.617188 369.402344 C 661.835938 369.792969 661.789062 370.191406 661.488281 370.527344 L 653.761719 379.007812 C 650.996094 382.042969 651.105469 386.703125 654.007812 389.613281 L 667.410156 403.015625 C 670.320312 405.921875 674.980469 406.027344 678.015625 403.261719 L 686.488281 395.535156 C 686.820312 395.234375 687.21875 395.1875 687.613281 395.40625 C 692.042969 397.875 696.757812 399.824219 701.625 401.21875 C 702.054688 401.339844 702.308594 401.65625 702.324219 402.101562 L 702.855469 413.546875 C 703.046875 417.652344 706.414062 420.867188 710.523438 420.867188 L 729.476562 420.867188 C 733.585938 420.867188 736.960938 417.652344 737.144531 413.546875 L 737.675781 402.097656 C 737.699219 401.648438 737.945312 401.335938 738.375 401.210938 C 743.234375 399.820312 747.949219 397.867188 752.386719 395.402344 C 752.777344 395.183594 753.175781 395.226562 753.511719 395.53125 L 761.984375 403.253906 C 765.019531 406.023438 769.679688 405.917969 772.589844 403.007812 L 785.992188 389.605469 C 788.898438 386.699219 789.003906 382.042969 786.238281 379 L 778.511719 370.527344 C 778.210938 370.199219 778.164062 369.792969 778.382812 369.402344 C 780.84375 364.972656 782.800781 360.257812 784.195312 355.390625 C 784.316406 354.960938 784.632812 354.710938 785.078125 354.691406 L 796.523438 354.160156 C 800.628906 353.972656 803.84375 350.597656 803.84375 346.488281 L 803.84375 327.535156 C 803.84375 323.425781 800.628906 320.058594 796.523438 319.863281 Z M 797.136719 346.476562 C 797.136719 346.996094 796.734375 347.421875 796.214844 347.445312 L 784.769531 347.976562 C 781.421875 348.132812 778.664062 350.3125 777.746094 353.535156 C 776.492188 357.910156 774.738281 362.148438 772.523438 366.132812 C 770.886719 369.0625 771.296875 372.558594 773.554688 375.035156 L 781.28125 383.507812 C 781.628906 383.890625 781.617188 384.476562 781.246094 384.847656 L 767.847656 398.25 C 767.480469 398.617188 766.894531 398.628906 766.507812 398.28125 L 758.035156 390.558594 C 755.558594 388.296875 752.0625 387.890625 749.128906 389.523438 C 745.140625 391.738281 740.90625 393.492188 736.539062 394.746094 C 733.316406 395.667969 731.136719 398.425781 730.980469 401.773438 L 730.449219 413.222656 C 730.425781 413.742188 730 414.144531 729.480469 414.144531 L 710.53125 414.144531 C 710.011719 414.144531 709.585938 413.742188 709.5625 413.222656 L 709.03125 401.777344 C 708.875 398.425781 706.691406 395.667969 703.472656 394.746094 C 699.097656 393.5 694.863281 391.738281 690.875 389.523438 C 689.679688 388.855469 688.390625 388.53125 687.117188 388.53125 C 685.265625 388.53125 683.4375 389.21875 681.96875 390.558594 L 673.496094 398.28125 C 673.117188 398.628906 672.523438 398.617188 672.160156 398.25 L 658.757812 384.847656 C 658.390625 384.476562 658.378906 383.890625 658.722656 383.507812 L 666.449219 375.03125 C 668.707031 372.550781 669.113281 369.054688 667.484375 366.125 C 665.269531 362.136719 663.507812 357.902344 662.257812 353.535156 C 661.335938 350.3125 658.578125 348.132812 655.230469 347.976562 L 643.777344 347.445312 C 643.265625 347.421875 642.855469 346.996094 642.855469 346.476562 L 642.855469 327.527344 C 642.855469 327.003906 643.257812 326.582031 643.777344 326.558594 L 655.230469 326.027344 C 658.578125 325.871094 661.335938 323.6875 662.253906 320.464844 C 663.507812 316.09375 665.261719 311.859375 667.476562 307.871094 C 669.105469 304.941406 668.703125 301.445312 666.445312 298.964844 L 658.71875 290.492188 C 658.371094 290.105469 658.382812 289.519531 658.746094 289.15625 L 672.148438 275.753906 C 672.519531 275.382812 673.105469 275.371094 673.484375 275.71875 L 681.960938 283.445312 C 684.4375 285.703125 687.933594 286.113281 690.863281 284.480469 C 694.847656 282.265625 699.085938 280.507812 703.460938 279.253906 C 706.683594 278.332031 708.863281 275.574219 709.019531 272.230469 L 709.550781 260.78125 C 709.574219 260.265625 710 259.855469 710.519531 259.855469 L 729.46875 259.855469 C 729.988281 259.855469 730.414062 260.257812 730.4375 260.78125 L 730.96875 272.222656 C 731.125 275.574219 733.304688 278.332031 736.527344 279.253906 C 740.902344 280.503906 745.136719 282.265625 749.125 284.480469 C 752.054688 286.105469 755.550781 285.703125 758.03125 283.445312 L 766.503906 275.71875 C 766.882812 275.371094 767.472656 275.382812 767.839844 275.753906 L 781.242188 289.15625 C 781.609375 289.523438 781.621094 290.105469 781.273438 290.492188 L 773.550781 298.972656 C 771.292969 301.449219 770.886719 304.945312 772.515625 307.875 C 774.730469 311.863281 776.492188 316.097656 777.742188 320.464844 C 778.664062 323.6875 781.421875 325.871094 784.765625 326.027344 L 796.214844 326.558594 C 796.734375 326.582031 797.136719 327.003906 797.136719 327.527344 Z M 720 229.328125 C 725.164062 229.328125 729.363281 225.128906 729.363281 219.964844 C 729.363281 214.800781 725.164062 210.601562 720 210.601562 C 714.835938 210.601562 710.636719 214.800781 710.636719 219.964844 C 710.636719 225.128906 714.835938 229.328125 720 229.328125 Z M 720 217.3125 C 721.460938 217.3125 722.652344 218.503906 722.652344 219.964844 C 722.652344 221.425781 721.460938 222.617188 720 222.617188 C 718.539062 222.617188 717.347656 221.425781 717.347656 219.964844 C 717.347656 218.503906 718.539062 217.3125 720 217.3125 Z M 802.753906 263.609375 C 805.253906 263.609375 807.601562 262.636719 809.371094 260.871094 C 811.136719 259.101562 812.113281 256.753906 812.113281 254.246094 C 812.113281 251.742188 811.136719 249.398438 809.371094 247.625 C 807.601562 245.855469 805.253906 244.882812 802.753906 244.882812 C 800.253906 244.882812 797.90625 245.855469 796.132812 247.625 C 794.363281 249.390625 793.390625 251.742188 793.390625 254.246094 C 793.390625 256.753906 794.363281 259.097656 796.132812 260.871094 C 797.898438 262.636719 800.253906 263.609375 802.753906 263.609375 Z M 800.878906 252.371094 C 801.378906 251.875 802.042969 251.59375 802.753906 251.59375 C 803.464844 251.59375 804.128906 251.871094 804.628906 252.371094 C 805.125 252.875 805.40625 253.542969 805.40625 254.246094 C 805.40625 254.953125 805.132812 255.621094 804.628906 256.121094 C 804.128906 256.617188 803.464844 256.898438 802.753906 256.898438 C 802.042969 256.898438 801.378906 256.625 800.878906 256.121094 C 800.375 255.621094 800.101562 254.957031 800.101562 254.246094 C 800.101562 253.535156 800.375 252.871094 800.878906 252.371094 Z M 837.035156 327.636719 C 831.871094 327.636719 827.671875 331.839844 827.671875 337 C 827.671875 342.164062 831.875 346.363281 837.035156 346.363281 C 842.199219 346.363281 846.398438 342.164062 846.398438 337 C 846.398438 331.839844 842.199219 327.636719 837.035156 327.636719 Z M 837.035156 339.652344 C 835.574219 339.652344 834.382812 338.460938 834.382812 337 C 834.382812 335.539062 835.574219 334.347656 837.035156 334.347656 C 838.496094 334.347656 839.6875 335.539062 839.6875 337 C 839.6875 338.460938 838.496094 339.652344 837.035156 339.652344 Z M 837.035156 319.234375 C 831.449219 319.234375 826.457031 321.832031 823.199219 325.875 L 800.835938 271.894531 C 801.472656 271.960938 802.109375 272 802.753906 272 C 807.300781 272 811.855469 270.265625 815.316406 266.804688 C 822.242188 259.878906 822.242188 248.609375 815.316406 241.679688 C 808.390625 234.753906 797.121094 234.753906 790.191406 241.679688 C 786.242188 245.628906 784.546875 250.992188 785.101562 256.160156 L 731.121094 233.804688 C 735.164062 230.542969 737.757812 225.554688 737.757812 219.964844 C 737.757812 210.171875 729.789062 202.199219 719.996094 202.199219 C 710.199219 202.199219 702.230469 210.171875 702.230469 219.964844 C 702.230469 225.554688 704.824219 230.542969 708.871094 233.804688 L 654.886719 256.164062 C 655.441406 251.003906 653.753906 245.636719 649.796875 241.683594 C 642.871094 234.757812 631.597656 234.757812 624.671875 241.683594 C 617.746094 248.609375 617.746094 259.878906 624.671875 266.808594 C 628.132812 270.273438 632.6875 272.003906 637.234375 272.003906 C 637.878906 272.003906 638.515625 271.964844 639.152344 271.898438 L 616.792969 325.882812 C 613.53125 321.835938 608.539062 319.242188 602.953125 319.242188 C 593.160156 319.242188 585.1875 327.210938 585.1875 337.007812 C 585.1875 346.800781 593.160156 354.769531 602.953125 354.769531 C 608.539062 354.769531 613.53125 352.175781 616.792969 348.132812 L 639.148438 402.101562 C 638.515625 402.035156 637.878906 401.996094 637.234375 401.996094 C 632.492188 401.996094 628.027344 403.839844 624.671875 407.199219 C 617.746094 414.121094 617.746094 425.394531 624.671875 432.324219 C 628.132812 435.785156 632.6875 437.519531 637.234375 437.519531 C 641.78125 437.519531 646.335938 435.785156 649.796875 432.324219 C 653.746094 428.375 655.441406 423.011719 654.886719 417.839844 L 708.871094 440.203125 C 704.824219 443.464844 702.230469 448.453125 702.230469 454.042969 C 702.230469 463.835938 710.199219 471.804688 719.996094 471.804688 C 729.789062 471.804688 737.757812 463.835938 737.757812 454.042969 C 737.757812 448.453125 735.164062 443.464844 731.121094 440.203125 L 785.101562 417.839844 C 784.546875 423.003906 786.238281 428.375 790.191406 432.324219 C 793.652344 435.785156 798.207031 437.519531 802.753906 437.519531 C 807.300781 437.519531 811.855469 435.785156 815.316406 432.324219 C 822.242188 425.398438 822.242188 414.128906 815.316406 407.199219 C 811.960938 403.839844 807.496094 401.996094 802.753906 401.996094 C 802.109375 401.996094 801.472656 402.035156 800.839844 402.101562 L 823.199219 348.132812 C 826.457031 352.175781 831.449219 354.769531 837.035156 354.769531 C 846.828125 354.769531 854.800781 346.800781 854.800781 337.007812 C 854.800781 327.210938 846.828125 319.242188 837.035156 319.242188 Z M 786.371094 398.621094 C 785.0625 397.3125 782.9375 397.3125 781.621094 398.621094 C 780.3125 399.933594 780.3125 402.058594 781.621094 403.371094 L 787.734375 409.484375 L 723.355469 436.15625 L 723.355469 427.507812 C 723.355469 425.65625 721.851562 424.152344 720 424.152344 C 718.148438 424.152344 716.644531 425.65625 716.644531 427.507812 L 716.644531 436.15625 L 652.265625 409.484375 L 658.378906 403.371094 C 659.6875 402.0625 659.6875 399.9375 658.378906 398.621094 C 657.070312 397.3125 654.945312 397.3125 653.628906 398.621094 L 647.515625 404.738281 L 620.847656 340.355469 L 629.492188 340.355469 C 631.34375 340.355469 632.851562 338.851562 632.851562 337 C 632.851562 335.148438 631.34375 333.644531 629.492188 333.644531 L 620.847656 333.644531 L 647.515625 269.265625 L 653.628906 275.378906 C 654.285156 276.03125 655.144531 276.363281 656 276.363281 C 656.855469 276.363281 657.71875 276.03125 658.371094 275.378906 C 659.679688 274.070312 659.679688 271.945312 658.371094 270.628906 L 652.257812 264.515625 L 716.636719 237.847656 L 716.636719 246.496094 C 716.636719 248.347656 718.144531 249.851562 719.996094 249.851562 C 721.847656 249.851562 723.351562 248.347656 723.351562 246.496094 L 723.351562 237.847656 L 787.730469 264.515625 L 781.617188 270.628906 C 780.308594 271.9375 780.308594 274.0625 781.617188 275.378906 C 782.269531 276.03125 783.132812 276.363281 783.988281 276.363281 C 784.84375 276.363281 785.707031 276.03125 786.359375 275.378906 L 792.472656 269.265625 L 819.140625 333.644531 L 810.496094 333.644531 C 808.644531 333.644531 807.140625 335.148438 807.140625 337 C 807.140625 338.851562 808.644531 340.355469 810.496094 340.355469 L 819.140625 340.355469 L 792.472656 404.738281 L 786.359375 398.621094 Z M 794.941406 246.425781 C 797.027344 244.339844 799.804688 243.1875 802.753906 243.1875 C 805.703125 243.1875 808.480469 244.339844 810.566406 246.425781 C 814.878906 250.738281 814.878906 257.75 810.566406 262.0625 C 808.480469 264.148438 805.703125 265.300781 802.753906 265.300781 C 799.804688 265.300781 797.027344 264.148438 794.941406 262.0625 C 790.628906 257.75 790.628906 250.738281 794.941406 246.425781 Z M 720 208.914062 C 726.097656 208.914062 731.050781 213.875 731.050781 219.964844 C 731.050781 226.054688 726.089844 231.015625 720 231.015625 C 713.910156 231.015625 708.949219 226.054688 708.949219 219.964844 C 708.949219 213.875 713.910156 208.914062 720 208.914062 Z M 629.425781 262.0625 C 625.113281 257.75 625.113281 250.738281 629.425781 246.425781 C 631.511719 244.339844 634.292969 243.1875 637.242188 243.1875 C 640.1875 243.1875 642.96875 244.339844 645.054688 246.425781 C 649.367188 250.738281 649.367188 257.75 645.054688 262.0625 C 642.96875 264.148438 640.1875 265.300781 637.242188 265.300781 C 634.292969 265.300781 631.511719 264.148438 629.425781 262.0625 Z M 602.964844 348.054688 C 596.867188 348.054688 591.910156 343.09375 591.910156 337 C 591.910156 330.910156 596.875 325.949219 602.964844 325.949219 C 609.054688 325.949219 614.015625 330.910156 614.015625 337 C 614.015625 343.09375 609.054688 348.054688 602.964844 348.054688 Z M 645.058594 427.574219 C 642.972656 429.660156 640.195312 430.8125 637.246094 430.8125 C 634.296875 430.8125 631.519531 429.660156 629.433594 427.574219 C 625.121094 423.261719 625.121094 416.253906 629.433594 411.941406 C 631.519531 409.855469 634.292969 408.703125 637.246094 408.703125 C 640.199219 408.703125 642.972656 409.855469 645.058594 411.941406 C 649.367188 416.253906 649.367188 423.261719 645.058594 427.574219 Z M 720 465.089844 C 713.902344 465.089844 708.949219 460.128906 708.949219 454.035156 C 708.949219 447.945312 713.910156 442.984375 720 442.984375 C 726.089844 442.984375 731.050781 447.945312 731.050781 454.035156 C 731.050781 460.128906 726.089844 465.089844 720 465.089844 Z M 810.574219 411.941406 C 814.878906 416.253906 814.878906 423.261719 810.574219 427.574219 C 808.488281 429.660156 805.707031 430.8125 802.757812 430.8125 C 799.8125 430.8125 797.03125 429.660156 794.945312 427.574219 C 790.632812 423.261719 790.632812 416.253906 794.945312 411.941406 C 797.03125 409.855469 799.804688 408.703125 802.757812 408.703125 C 805.710938 408.703125 808.488281 409.855469 810.574219 411.941406 Z M 837.035156 348.054688 C 830.9375 348.054688 825.984375 343.09375 825.984375 337 C 825.984375 330.910156 830.945312 325.949219 837.035156 325.949219 C 843.125 325.949219 848.089844 330.910156 848.089844 337 C 848.089844 343.09375 843.125 348.054688 837.035156 348.054688 Z M 796.136719 426.378906 C 797.90625 428.144531 800.257812 429.117188 802.757812 429.117188 C 805.261719 429.117188 807.609375 428.144531 809.375 426.378906 C 811.144531 424.609375 812.117188 422.253906 812.117188 419.753906 C 812.117188 417.253906 811.144531 414.90625 809.375 413.132812 C 807.609375 411.359375 805.253906 410.390625 802.753906 410.390625 C 800.253906 410.390625 797.90625 411.363281 796.132812 413.132812 C 794.363281 414.898438 793.390625 417.253906 793.390625 419.753906 C 793.390625 422.253906 794.363281 424.605469 796.132812 426.378906 Z M 800.878906 417.882812 C 801.378906 417.382812 802.042969 417.101562 802.753906 417.101562 C 803.464844 417.101562 804.128906 417.378906 804.628906 417.882812 C 805.125 418.382812 805.40625 419.042969 805.40625 419.753906 C 805.40625 420.464844 805.132812 421.128906 804.628906 421.628906 C 804.128906 422.132812 803.464844 422.40625 802.753906 422.40625 C 802.042969 422.40625 801.378906 422.132812 800.878906 421.628906 C 800.382812 421.125 800.101562 420.464844 800.101562 419.753906 C 800.101562 419.042969 800.375 418.378906 800.878906 417.882812 Z M 720 444.671875 C 714.835938 444.671875 710.636719 448.875 710.636719 454.035156 C 710.636719 459.199219 714.835938 463.398438 720 463.398438 C 725.164062 463.398438 729.363281 459.199219 729.363281 454.035156 C 729.363281 448.875 725.164062 444.671875 720 444.671875 Z M 720 456.6875 C 718.539062 456.6875 717.347656 455.496094 717.347656 454.035156 C 717.347656 452.578125 718.539062 451.386719 720 451.386719 C 721.460938 451.386719 722.652344 452.578125 722.652344 454.035156 C 722.652344 455.496094 721.460938 456.6875 720 456.6875 Z M 637.246094 410.390625 C 634.746094 410.390625 632.398438 411.363281 630.628906 413.132812 C 628.863281 414.898438 627.886719 417.253906 627.886719 419.753906 C 627.886719 422.253906 628.863281 424.605469 630.628906 426.378906 C 632.398438 428.144531 634.746094 429.117188 637.246094 429.117188 C 639.746094 429.117188 642.09375 428.144531 643.867188 426.378906 C 645.636719 424.609375 646.609375 422.261719 646.609375 419.753906 C 646.609375 417.25 645.636719 414.90625 643.867188 413.132812 C 642.101562 411.359375 639.746094 410.390625 637.246094 410.390625 Z M 639.121094 421.632812 C 638.621094 422.132812 637.957031 422.410156 637.246094 422.410156 C 636.535156 422.410156 635.871094 422.136719 635.371094 421.632812 C 634.875 421.128906 634.59375 420.464844 634.59375 419.761719 C 634.59375 419.054688 634.867188 418.382812 635.371094 417.886719 C 635.875 417.390625 636.535156 417.109375 637.246094 417.109375 C 637.957031 417.109375 638.621094 417.382812 639.121094 417.886719 C 639.617188 418.390625 639.898438 419.050781 639.898438 419.761719 C 639.898438 420.46875 639.625 421.136719 639.121094 421.632812 Z M 602.964844 327.636719 C 597.800781 327.636719 593.601562 331.839844 593.601562 337 C 593.601562 342.164062 597.800781 346.363281 602.964844 346.363281 C 608.125 346.363281 612.328125 342.164062 612.328125 337 C 612.328125 331.839844 608.125 327.636719 602.964844 327.636719 Z M 602.964844 339.652344 C 601.503906 339.652344 600.3125 338.460938 600.3125 337 C 600.3125 335.539062 601.503906 334.347656 602.964844 334.347656 C 604.425781 334.347656 605.617188 335.539062 605.617188 337 C 605.617188 338.460938 604.425781 339.652344 602.964844 339.652344 Z M 643.863281 247.625 C 642.09375 245.855469 639.742188 244.882812 637.242188 244.882812 C 634.738281 244.882812 632.390625 245.855469 630.625 247.625 C 628.855469 249.390625 627.882812 251.746094 627.882812 254.246094 C 627.882812 256.746094 628.855469 259.097656 630.625 260.871094 C 632.390625 262.636719 634.746094 263.609375 637.246094 263.609375 C 639.746094 263.609375 642.09375 262.636719 643.867188 260.871094 C 645.636719 259.101562 646.609375 256.753906 646.609375 254.246094 C 646.609375 251.742188 645.636719 249.398438 643.867188 247.625 Z M 639.121094 256.121094 C 638.621094 256.617188 637.957031 256.898438 637.246094 256.898438 C 636.535156 256.898438 635.871094 256.625 635.371094 256.121094 C 634.867188 255.621094 634.59375 254.957031 634.59375 254.246094 C 634.59375 253.535156 634.867188 252.871094 635.371094 252.371094 C 635.871094 251.871094 636.535156 251.59375 637.246094 251.59375 C 637.957031 251.59375 638.621094 251.871094 639.121094 252.371094 C 639.617188 252.875 639.898438 253.535156 639.898438 254.246094 C 639.898438 254.957031 639.625 255.621094 639.121094 256.121094 Z M 763.628906 320.859375 C 757.050781 303.136719 739.980469 290.480469 720 290.480469 C 700.019531 290.480469 682.949219 303.136719 676.371094 320.851562 C 676.292969 321.027344 676.226562 321.203125 676.179688 321.394531 C 674.4375 326.277344 673.480469 331.53125 673.480469 337 C 673.480469 342.472656 674.4375 347.730469 676.179688 352.613281 C 676.230469 352.796875 676.292969 352.980469 676.371094 353.148438 C 682.949219 370.863281 700.019531 383.519531 720 383.519531 C 739.980469 383.519531 757.054688 370.855469 763.628906 353.144531 C 763.707031 352.976562 763.769531 352.796875 763.820312 352.617188 C 765.5625 347.734375 766.519531 342.476562 766.519531 337 C 766.519531 331.523438 765.5625 326.265625 763.820312 321.382812 C 763.769531 321.199219 763.707031 321.027344 763.628906 320.859375 Z M 680.191406 337 C 680.191406 333.039062 680.777344 329.214844 681.863281 325.601562 L 694.539062 325.601562 C 694.042969 329.238281 693.773438 333.050781 693.773438 337 C 693.773438 340.949219 694.042969 344.757812 694.539062 348.398438 L 681.863281 348.398438 C 680.785156 344.785156 680.191406 340.960938 680.191406 337 Z M 700.480469 337 C 700.480469 333.058594 700.78125 329.230469 701.335938 325.601562 L 716.648438 325.601562 L 716.648438 348.394531 L 701.335938 348.394531 C 700.78125 344.765625 700.480469 340.9375 700.480469 336.996094 Z M 737.300781 318.890625 L 723.355469 318.890625 L 723.355469 297.820312 C 729.363281 300.046875 734.515625 308.09375 737.300781 318.890625 Z M 716.644531 297.820312 L 716.644531 318.890625 L 702.699219 318.890625 C 705.484375 308.09375 710.636719 300.046875 716.644531 297.820312 Z M 716.644531 355.113281 L 716.644531 376.183594 C 710.636719 373.957031 705.484375 365.90625 702.699219 355.113281 Z M 723.355469 376.183594 L 723.355469 355.113281 L 737.300781 355.113281 C 734.515625 365.90625 729.363281 373.957031 723.355469 376.183594 Z M 723.355469 348.398438 L 723.355469 325.605469 L 738.671875 325.605469 C 739.222656 329.238281 739.527344 333.0625 739.527344 337.007812 C 739.527344 340.949219 739.222656 344.777344 738.671875 348.40625 L 723.355469 348.40625 Z M 745.464844 325.601562 L 758.140625 325.601562 C 759.222656 329.214844 759.8125 333.039062 759.8125 337 C 759.8125 340.960938 759.226562 344.785156 758.140625 348.398438 L 745.464844 348.398438 C 745.964844 344.765625 746.234375 340.949219 746.234375 337 C 746.234375 333.050781 745.964844 329.242188 745.464844 325.601562 Z M 755.433594 318.890625 L 744.234375 318.890625 C 742.589844 311.792969 739.992188 305.632812 736.707031 300.878906 C 744.773438 304.625 751.378906 310.996094 755.429688 318.890625 Z M 703.285156 300.878906 C 700.003906 305.632812 697.410156 311.792969 695.757812 318.890625 L 684.558594 318.890625 C 688.609375 310.996094 695.214844 304.625 703.28125 300.878906 Z M 684.566406 355.113281 L 695.765625 355.113281 C 697.410156 362.210938 700.007812 368.367188 703.292969 373.121094 C 695.226562 369.375 688.621094 363.003906 684.570312 355.113281 Z M 736.714844 373.121094 C 739.996094 368.367188 742.589844 362.210938 744.242188 355.113281 L 755.441406 355.113281 C 751.390625 363.003906 744.785156 369.375 736.71875 373.121094 Z M 736.714844 373.121094 " fill-opacity="1" fill-rule="nonzero"/></g></svg>