<svg xmlns="http://www.w3.org/2000/svg" xmlns:xlink="http://www.w3.org/1999/xlink" width="1920" zoomAndPan="magnify" viewBox="0 0 1440 675.000002" height="900" preserveAspectRatio="xMidYMid meet" version="1.0"><defs><clipPath id="6a49d2041d"><path d="M 487.585938 81.34375 L 999 81.34375 L 999 592.835938 L 487.585938 592.835938 Z M 487.585938 81.34375 " clip-rule="nonzero"/></clipPath></defs><g clip-path="url(#6a49d2041d)"><path fill="#d7b0d3" d="M 888.375 304.472656 L 866.664062 303.464844 C 865.8125 303.421875 865.21875 302.957031 864.984375 302.140625 C 862.34375 292.921875 858.640625 283.980469 853.964844 275.566406 C 853.550781 274.824219 853.636719 274.070312 854.207031 273.445312 L 868.859375 257.375 C 874.109375 251.613281 873.90625 242.777344 868.390625 237.261719 L 842.972656 211.84375 C 837.457031 206.328125 828.621094 206.125 822.863281 211.378906 L 806.789062 226.027344 C 806.164062 226.601562 805.410156 226.683594 804.660156 226.269531 C 796.246094 221.59375 787.304688 217.890625 778.085938 215.25 C 777.269531 215.015625 776.792969 214.421875 776.757812 213.574219 L 775.75 191.871094 C 775.390625 184.082031 769.003906 177.984375 761.207031 177.984375 L 725.269531 177.984375 C 717.472656 177.984375 711.074219 184.082031 710.726562 191.871094 L 709.71875 213.585938 C 709.675781 214.433594 709.207031 215.027344 708.390625 215.261719 C 699.160156 217.902344 690.230469 221.605469 681.816406 226.28125 C 681.074219 226.695312 680.320312 226.609375 679.6875 226.039062 L 663.613281 211.386719 C 657.855469 206.136719 649.019531 206.339844 643.5 211.855469 L 618.085938 237.273438 C 612.570312 242.789062 612.367188 251.613281 617.617188 257.382812 L 632.269531 273.457031 C 632.839844 274.082031 632.925781 274.84375 632.511719 275.585938 C 627.832031 283.988281 624.132812 292.933594 621.492188 302.160156 C 621.257812 302.976562 620.664062 303.453125 619.8125 303.488281 L 598.101562 304.496094 C 590.3125 304.855469 584.214844 311.25 584.214844 319.046875 L 584.214844 354.988281 C 584.214844 362.785156 590.3125 369.183594 598.101562 369.542969 L 619.8125 370.550781 C 620.664062 370.59375 621.257812 371.058594 621.492188 371.875 C 624.132812 381.09375 627.832031 390.039062 632.511719 398.449219 C 632.925781 399.191406 632.839844 399.945312 632.269531 400.582031 L 617.617188 416.664062 C 612.367188 422.421875 612.578125 431.261719 618.085938 436.777344 L 643.5 462.191406 C 649.019531 467.710938 657.855469 467.910156 663.613281 462.660156 L 679.6875 448.011719 C 680.3125 447.4375 681.066406 447.351562 681.816406 447.765625 C 690.21875 452.445312 699.160156 456.144531 708.390625 458.789062 C 709.207031 459.019531 709.683594 459.617188 709.71875 460.464844 L 710.726562 482.167969 C 711.085938 489.953125 717.472656 496.054688 725.269531 496.054688 L 761.207031 496.054688 C 769.003906 496.054688 775.402344 489.953125 775.75 482.167969 L 776.757812 460.453125 C 776.800781 459.605469 777.269531 459.011719 778.085938 458.777344 C 787.304688 456.136719 796.246094 452.433594 804.660156 447.753906 C 805.402344 447.339844 806.152344 447.425781 806.789062 448 L 822.863281 462.648438 C 828.621094 467.898438 837.457031 467.699219 842.972656 462.183594 L 868.390625 436.765625 C 873.90625 431.25 874.109375 422.421875 868.859375 416.652344 L 854.207031 400.582031 C 853.636719 399.957031 853.550781 399.191406 853.964844 398.449219 C 858.632812 390.046875 862.34375 381.105469 864.984375 371.875 C 865.21875 371.058594 865.8125 370.582031 866.664062 370.550781 L 888.367188 369.542969 C 896.152344 369.183594 902.25 362.785156 902.25 354.988281 L 902.25 319.046875 C 902.25 311.25 896.152344 304.867188 888.367188 304.496094 Z M 889.53125 354.96875 C 889.53125 355.953125 888.769531 356.761719 887.78125 356.800781 L 866.078125 357.808594 C 859.722656 358.109375 854.496094 362.246094 852.753906 368.355469 C 850.378906 376.648438 847.046875 384.691406 842.847656 392.242188 C 839.75 397.800781 840.523438 404.433594 844.808594 409.132812 L 859.460938 425.203125 C 860.117188 425.925781 860.097656 427.039062 859.394531 427.738281 L 833.980469 453.15625 C 833.289062 453.855469 832.175781 453.875 831.445312 453.21875 L 815.371094 438.570312 C 810.671875 434.285156 804.042969 433.507812 798.484375 436.605469 C 790.921875 440.808594 782.890625 444.136719 774.605469 446.515625 C 768.496094 448.265625 764.359375 453.496094 764.0625 459.839844 L 763.054688 481.550781 C 763.011719 482.539062 762.207031 483.304688 761.21875 483.304688 L 725.277344 483.304688 C 724.292969 483.304688 723.484375 482.539062 723.445312 481.550781 L 722.4375 459.847656 C 722.140625 453.496094 718 448.265625 711.890625 446.515625 C 703.597656 444.148438 695.566406 440.808594 688.003906 436.605469 C 685.730469 435.34375 683.292969 434.730469 680.875 434.730469 C 677.363281 434.730469 673.894531 436.035156 671.113281 438.570312 L 655.042969 453.21875 C 654.320312 453.875 653.199219 453.855469 652.507812 453.15625 L 627.089844 427.738281 C 626.390625 427.039062 626.371094 425.925781 627.027344 425.203125 L 641.675781 409.121094 C 645.960938 404.421875 646.726562 397.792969 643.640625 392.234375 C 639.4375 384.667969 636.097656 376.640625 633.730469 368.355469 C 631.980469 362.246094 626.75 358.105469 620.398438 357.808594 L 598.683594 356.800781 C 597.707031 356.761719 596.933594 355.953125 596.933594 354.96875 L 596.933594 319.027344 C 596.933594 318.042969 597.695312 317.234375 598.683594 317.191406 L 620.398438 316.183594 C 626.75 315.886719 631.980469 311.75 633.722656 305.640625 C 636.097656 297.34375 639.429688 289.316406 643.628906 281.75 C 646.714844 276.191406 645.953125 269.5625 641.667969 264.863281 L 627.015625 248.792969 C 626.359375 248.058594 626.378906 246.945312 627.070312 246.257812 L 652.488281 220.839844 C 653.1875 220.140625 654.300781 220.117188 655.023438 220.777344 L 671.09375 235.425781 C 675.792969 239.710938 682.421875 240.484375 687.980469 237.386719 C 695.535156 233.1875 703.574219 229.855469 711.871094 227.480469 C 717.980469 225.730469 722.117188 220.5 722.414062 214.15625 L 723.421875 192.441406 C 723.464844 191.464844 724.269531 190.691406 725.257812 190.691406 L 761.199219 190.691406 C 762.183594 190.691406 762.988281 191.457031 763.03125 192.441406 L 764.039062 214.144531 C 764.335938 220.5 768.472656 225.730469 774.585938 227.480469 C 782.878906 229.847656 790.910156 233.1875 798.472656 237.386719 C 804.03125 240.476562 810.664062 239.710938 815.363281 235.425781 L 831.433594 220.777344 C 832.152344 220.117188 833.269531 220.140625 833.96875 220.839844 L 859.386719 246.257812 C 860.085938 246.957031 860.105469 248.058594 859.449219 248.792969 L 844.800781 264.875 C 840.511719 269.574219 839.75 276.203125 842.835938 281.761719 C 847.039062 289.324219 850.378906 297.355469 852.746094 305.640625 C 854.496094 311.75 859.722656 315.886719 866.066406 316.183594 L 887.78125 317.191406 C 888.769531 317.234375 889.53125 318.039062 889.53125 319.027344 Z M 743.238281 132.792969 C 753.03125 132.792969 760.996094 124.828125 760.996094 115.035156 C 760.996094 105.246094 753.03125 97.277344 743.238281 97.277344 C 733.445312 97.277344 725.480469 105.246094 725.480469 115.035156 C 725.480469 124.828125 733.445312 132.792969 743.238281 132.792969 Z M 743.238281 110.007812 C 746.007812 110.007812 748.265625 112.265625 748.265625 115.035156 C 748.265625 117.804688 746.007812 120.0625 743.238281 120.0625 C 740.46875 120.0625 738.210938 117.804688 738.210938 115.035156 C 738.210938 112.265625 740.46875 110.007812 743.238281 110.007812 Z M 900.183594 197.808594 C 904.925781 197.808594 909.378906 195.964844 912.734375 192.613281 C 916.085938 189.261719 917.929688 184.804688 917.929688 180.050781 C 917.929688 175.300781 916.085938 170.855469 912.734375 167.492188 C 909.378906 164.140625 904.925781 162.292969 900.183594 162.292969 C 895.441406 162.292969 890.984375 164.140625 887.625 167.492188 C 884.269531 170.84375 882.425781 175.300781 882.425781 180.050781 C 882.425781 184.804688 884.269531 189.25 887.625 192.613281 C 890.976562 195.964844 895.441406 197.808594 900.183594 197.808594 Z M 896.628906 176.5 C 897.574219 175.554688 898.835938 175.023438 900.183594 175.023438 C 901.53125 175.023438 902.792969 175.542969 903.738281 176.5 C 904.679688 177.453125 905.210938 178.714844 905.210938 180.050781 C 905.210938 181.390625 904.691406 182.660156 903.738281 183.605469 C 902.792969 184.550781 901.53125 185.082031 900.183594 185.082031 C 898.835938 185.082031 897.574219 184.5625 896.628906 183.605469 C 895.675781 182.660156 895.15625 181.398438 895.15625 180.050781 C 895.15625 178.707031 895.675781 177.441406 896.628906 176.5 Z M 965.199219 319.238281 C 955.410156 319.238281 947.441406 327.207031 947.441406 336.996094 C 947.441406 346.789062 955.410156 354.753906 965.199219 354.753906 C 974.992188 354.753906 982.957031 346.789062 982.957031 336.996094 C 982.957031 327.207031 974.992188 319.238281 965.199219 319.238281 Z M 965.199219 342.027344 C 962.429688 342.027344 960.171875 339.765625 960.171875 336.996094 C 960.171875 334.230469 962.429688 331.96875 965.199219 331.96875 C 967.96875 331.96875 970.226562 334.230469 970.226562 336.996094 C 970.226562 339.765625 967.96875 342.027344 965.199219 342.027344 Z M 965.199219 303.304688 C 954.601562 303.304688 945.140625 308.230469 938.957031 315.898438 L 896.542969 213.519531 C 897.753906 213.648438 898.964844 213.722656 900.183594 213.722656 C 908.808594 213.722656 917.441406 210.433594 924.007812 203.867188 C 937.140625 190.734375 937.140625 169.359375 924.007812 156.214844 C 910.875 143.082031 889.5 143.082031 876.359375 156.214844 C 868.867188 163.707031 865.65625 173.878906 866.703125 183.679688 L 764.328125 141.28125 C 771.996094 135.097656 776.917969 125.632812 776.917969 115.035156 C 776.917969 96.460938 761.800781 81.34375 743.226562 81.34375 C 724.652344 81.34375 709.535156 96.460938 709.535156 115.035156 C 709.535156 125.632812 714.457031 135.097656 722.128906 141.28125 L 619.75 183.691406 C 620.800781 173.898438 617.597656 163.726562 610.097656 156.226562 C 596.964844 143.09375 575.578125 143.09375 562.445312 156.226562 C 549.3125 169.359375 549.3125 190.734375 562.445312 203.878906 C 569.011719 210.445312 577.648438 213.734375 586.273438 213.734375 C 587.492188 213.734375 588.699219 213.660156 589.910156 213.53125 L 547.5 315.910156 C 541.316406 308.238281 531.851562 303.316406 521.253906 303.316406 C 502.679688 303.316406 487.5625 318.433594 487.5625 337.007812 C 487.5625 355.582031 502.679688 370.699219 521.253906 370.699219 C 531.851562 370.699219 541.316406 365.777344 547.5 358.109375 L 589.898438 460.464844 C 588.699219 460.335938 587.492188 460.261719 586.273438 460.261719 C 577.277344 460.261719 568.8125 463.761719 562.445312 470.128906 C 549.3125 483.261719 549.3125 504.636719 562.445312 517.777344 C 569.011719 524.34375 577.648438 527.632812 586.273438 527.632812 C 594.894531 527.632812 603.53125 524.34375 610.097656 517.777344 C 617.585938 510.289062 620.800781 500.117188 619.75 490.316406 L 722.128906 532.726562 C 714.457031 538.910156 709.535156 548.371094 709.535156 558.96875 C 709.535156 577.542969 724.652344 592.660156 743.226562 592.660156 C 761.800781 592.660156 776.917969 577.542969 776.917969 558.96875 C 776.917969 548.371094 771.996094 538.910156 764.328125 532.726562 L 866.703125 490.316406 C 865.65625 500.105469 868.859375 510.289062 876.359375 517.777344 C 882.925781 524.34375 891.558594 527.632812 900.183594 527.632812 C 908.808594 527.632812 917.441406 524.34375 924.007812 517.777344 C 937.140625 504.644531 937.140625 483.269531 924.007812 470.128906 C 917.644531 463.761719 909.179688 460.261719 900.183594 460.261719 C 898.964844 460.261719 897.753906 460.335938 896.554688 460.464844 L 938.957031 358.109375 C 945.140625 365.777344 954.601562 370.699219 965.199219 370.699219 C 983.773438 370.699219 998.890625 355.582031 998.890625 337.007812 C 998.890625 318.433594 983.773438 303.316406 965.199219 303.316406 Z M 869.113281 453.867188 C 866.628906 451.382812 862.597656 451.382812 860.105469 453.867188 C 857.625 456.347656 857.625 460.378906 860.105469 462.871094 L 871.699219 474.464844 L 749.601562 525.046875 L 749.601562 508.644531 C 749.601562 505.132812 746.75 502.28125 743.238281 502.28125 C 739.726562 502.28125 736.875 505.132812 736.875 508.644531 L 736.875 525.046875 L 614.777344 474.464844 L 626.371094 462.871094 C 628.851562 460.390625 628.851562 456.359375 626.371094 453.867188 C 623.886719 451.382812 619.855469 451.382812 617.363281 453.867188 L 605.769531 465.460938 L 555.191406 343.363281 L 571.589844 343.363281 C 575.101562 343.363281 577.957031 340.507812 577.957031 336.996094 C 577.957031 333.484375 575.101562 330.632812 571.589844 330.632812 L 555.191406 330.632812 L 605.769531 208.535156 L 617.363281 220.128906 C 618.605469 221.371094 620.238281 221.996094 621.863281 221.996094 C 623.484375 221.996094 625.117188 221.371094 626.359375 220.128906 C 628.839844 217.648438 628.839844 213.617188 626.359375 211.125 L 614.765625 199.527344 L 736.863281 148.949219 L 736.863281 165.351562 C 736.863281 168.859375 739.714844 171.714844 743.226562 171.714844 C 746.738281 171.714844 749.59375 168.859375 749.59375 165.351562 L 749.59375 148.949219 L 871.691406 199.527344 L 860.097656 211.125 C 857.613281 213.605469 857.613281 217.636719 860.097656 220.128906 C 861.335938 221.371094 862.96875 221.996094 864.59375 221.996094 C 866.214844 221.996094 867.851562 221.371094 869.089844 220.128906 L 880.6875 208.535156 L 931.265625 330.632812 L 914.863281 330.632812 C 911.355469 330.632812 908.5 333.484375 908.5 336.996094 C 908.5 340.507812 911.355469 343.363281 914.863281 343.363281 L 931.265625 343.363281 L 880.6875 465.460938 L 869.089844 453.867188 Z M 885.363281 165.222656 C 889.320312 161.265625 894.59375 159.082031 900.183594 159.082031 C 905.773438 159.082031 911.046875 161.265625 915.003906 165.222656 C 923.179688 173.402344 923.179688 186.691406 915.003906 194.871094 C 911.046875 198.828125 905.773438 201.015625 900.183594 201.015625 C 894.59375 201.015625 889.320312 198.828125 885.363281 194.871094 C 877.183594 186.691406 877.183594 173.402344 885.363281 165.222656 Z M 743.238281 94.074219 C 754.800781 94.074219 764.199219 103.484375 764.199219 115.035156 C 764.199219 126.589844 754.789062 135.996094 743.238281 135.996094 C 731.6875 135.996094 722.277344 126.589844 722.277344 115.035156 C 722.277344 103.484375 731.6875 94.074219 743.238281 94.074219 Z M 571.464844 194.871094 C 563.285156 186.691406 563.285156 173.402344 571.464844 165.222656 C 575.417969 161.265625 580.691406 159.082031 586.28125 159.082031 C 591.871094 159.082031 597.144531 161.265625 601.101562 165.222656 C 609.28125 173.402344 609.28125 186.691406 601.101562 194.871094 C 597.144531 198.828125 591.871094 201.015625 586.28125 201.015625 C 580.691406 201.015625 575.417969 198.828125 571.464844 194.871094 Z M 521.277344 357.957031 C 509.714844 357.957031 500.316406 348.550781 500.316406 336.996094 C 500.316406 325.445312 509.722656 316.035156 521.277344 316.035156 C 532.828125 316.035156 542.238281 325.445312 542.238281 336.996094 C 542.238281 348.550781 532.828125 357.957031 521.277344 357.957031 Z M 601.113281 508.773438 C 597.15625 512.730469 591.882812 514.914062 586.292969 514.914062 C 580.703125 514.914062 575.429688 512.730469 571.472656 508.773438 C 563.292969 500.59375 563.292969 487.300781 571.472656 479.125 C 575.429688 475.167969 580.691406 472.980469 586.292969 472.980469 C 591.894531 472.980469 597.15625 475.167969 601.113281 479.125 C 609.28125 487.300781 609.28125 500.59375 601.113281 508.773438 Z M 743.238281 579.921875 C 731.675781 579.921875 722.277344 570.511719 722.277344 558.960938 C 722.277344 547.40625 731.6875 537.996094 743.238281 537.996094 C 754.789062 537.996094 764.199219 547.40625 764.199219 558.960938 C 764.199219 570.511719 754.789062 579.921875 743.238281 579.921875 Z M 915.011719 479.125 C 923.179688 487.300781 923.179688 500.59375 915.011719 508.773438 C 911.054688 512.730469 905.785156 514.914062 900.195312 514.914062 C 894.605469 514.914062 889.332031 512.730469 885.375 508.773438 C 877.195312 500.59375 877.195312 487.300781 885.375 479.125 C 889.332031 475.167969 894.59375 472.980469 900.195312 472.980469 C 905.796875 472.980469 911.054688 475.167969 915.011719 479.125 Z M 965.199219 357.957031 C 953.636719 357.957031 944.238281 348.550781 944.238281 336.996094 C 944.238281 325.445312 953.648438 316.035156 965.199219 316.035156 C 976.75 316.035156 986.160156 325.445312 986.160156 336.996094 C 986.160156 348.550781 976.75 357.957031 965.199219 357.957031 Z M 887.632812 506.503906 C 890.984375 509.855469 895.453125 511.699219 900.195312 511.699219 C 904.9375 511.699219 909.390625 509.855469 912.742188 506.503906 C 916.09375 503.152344 917.941406 498.683594 917.941406 493.941406 C 917.941406 489.199219 916.09375 484.746094 912.742188 481.382812 C 909.390625 478.019531 904.925781 476.183594 900.183594 476.183594 C 895.441406 476.183594 890.984375 478.03125 887.625 481.382812 C 884.269531 484.734375 882.425781 489.199219 882.425781 493.941406 C 882.425781 498.683594 884.269531 503.140625 887.625 506.503906 Z M 896.628906 490.390625 C 897.574219 489.445312 898.835938 488.914062 900.183594 488.914062 C 901.53125 488.914062 902.792969 489.433594 903.738281 490.390625 C 904.679688 491.34375 905.210938 492.59375 905.210938 493.941406 C 905.210938 495.289062 904.691406 496.550781 903.738281 497.496094 C 902.792969 498.449219 901.53125 498.972656 900.183594 498.972656 C 898.835938 498.972656 897.574219 498.449219 896.628906 497.496094 C 895.683594 496.542969 895.15625 495.289062 895.15625 493.941406 C 895.15625 492.59375 895.675781 491.332031 896.628906 490.390625 Z M 743.238281 541.203125 C 733.445312 541.203125 725.480469 549.167969 725.480469 558.960938 C 725.480469 568.75 733.445312 576.71875 743.238281 576.71875 C 753.03125 576.71875 760.996094 568.75 760.996094 558.960938 C 760.996094 549.167969 753.03125 541.203125 743.238281 541.203125 Z M 743.238281 563.988281 C 740.46875 563.988281 738.210938 561.726562 738.210938 558.960938 C 738.210938 556.191406 740.46875 553.929688 743.238281 553.929688 C 746.007812 553.929688 748.265625 556.191406 748.265625 558.960938 C 748.265625 561.726562 746.007812 563.988281 743.238281 563.988281 Z M 586.292969 476.183594 C 581.550781 476.183594 577.097656 478.03125 573.742188 481.382812 C 570.390625 484.734375 568.546875 489.199219 568.546875 493.941406 C 568.546875 498.683594 570.390625 503.140625 573.742188 506.503906 C 577.097656 509.855469 581.550781 511.699219 586.292969 511.699219 C 591.035156 511.699219 595.488281 509.855469 598.851562 506.503906 C 602.203125 503.152344 604.050781 498.695312 604.050781 493.941406 C 604.050781 489.191406 602.203125 484.746094 598.851562 481.382812 C 595.5 478.019531 591.035156 476.183594 586.292969 476.183594 Z M 589.847656 497.507812 C 588.902344 498.449219 587.640625 498.980469 586.292969 498.980469 C 584.945312 498.980469 583.683594 498.460938 582.738281 497.507812 C 581.796875 496.550781 581.265625 495.289062 581.265625 493.953125 C 581.265625 492.617188 581.785156 491.34375 582.738281 490.398438 C 583.695312 489.457031 584.945312 488.925781 586.292969 488.925781 C 587.640625 488.925781 588.902344 489.445312 589.847656 490.398438 C 590.789062 491.355469 591.320312 492.605469 591.320312 493.953125 C 591.320312 495.300781 590.800781 496.5625 589.847656 497.507812 Z M 521.277344 319.238281 C 511.484375 319.238281 503.519531 327.207031 503.519531 336.996094 C 503.519531 346.789062 511.484375 354.753906 521.277344 354.753906 C 531.066406 354.753906 539.035156 346.789062 539.035156 336.996094 C 539.035156 327.207031 531.066406 319.238281 521.277344 319.238281 Z M 521.277344 342.027344 C 518.507812 342.027344 516.25 339.765625 516.25 336.996094 C 516.25 334.230469 518.507812 331.96875 521.277344 331.96875 C 524.046875 331.96875 526.304688 334.230469 526.304688 336.996094 C 526.304688 339.765625 524.046875 342.027344 521.277344 342.027344 Z M 598.84375 167.492188 C 595.488281 164.140625 591.023438 162.292969 586.28125 162.292969 C 581.539062 162.292969 577.085938 164.140625 573.734375 167.492188 C 570.382812 170.84375 568.535156 175.3125 568.535156 180.050781 C 568.535156 184.792969 570.382812 189.25 573.734375 192.613281 C 577.085938 195.964844 581.550781 197.808594 586.292969 197.808594 C 591.035156 197.808594 595.488281 195.964844 598.851562 192.613281 C 602.203125 189.261719 604.050781 184.804688 604.050781 180.050781 C 604.050781 175.300781 602.203125 170.855469 598.851562 167.492188 Z M 589.847656 183.605469 C 588.902344 184.550781 587.640625 185.082031 586.292969 185.082031 C 584.945312 185.082031 583.683594 184.5625 582.738281 183.605469 C 581.785156 182.660156 581.265625 181.398438 581.265625 180.050781 C 581.265625 178.707031 581.785156 177.441406 582.738281 176.5 C 583.683594 175.542969 584.945312 175.023438 586.292969 175.023438 C 587.640625 175.023438 588.902344 175.542969 589.847656 176.5 C 590.789062 177.453125 591.320312 178.707031 591.320312 180.050781 C 591.320312 181.398438 590.800781 182.660156 589.847656 183.605469 Z M 825.980469 306.382812 C 813.503906 272.777344 781.128906 248.769531 743.238281 248.769531 C 705.347656 248.769531 672.972656 272.777344 660.496094 306.371094 C 660.347656 306.699219 660.21875 307.039062 660.136719 307.402344 C 656.824219 316.660156 655.011719 326.621094 655.011719 336.996094 C 655.011719 347.371094 656.824219 357.34375 660.136719 366.605469 C 660.230469 366.953125 660.347656 367.304688 660.496094 367.621094 C 672.972656 401.21875 705.347656 425.222656 743.238281 425.222656 C 781.128906 425.222656 813.515625 401.207031 825.980469 367.613281 C 826.128906 367.292969 826.246094 366.953125 826.339844 366.613281 C 829.652344 357.355469 831.464844 347.382812 831.464844 336.996094 C 831.464844 326.613281 829.652344 316.640625 826.339844 307.378906 C 826.246094 307.03125 826.128906 306.699219 825.980469 306.382812 Z M 667.742188 336.996094 C 667.742188 329.488281 668.855469 322.230469 670.914062 315.378906 L 694.949219 315.378906 C 694.007812 322.273438 693.496094 329.507812 693.496094 336.996094 C 693.496094 344.488281 694.007812 351.710938 694.949219 358.617188 L 670.914062 358.617188 C 668.867188 351.765625 667.742188 344.507812 667.742188 336.996094 Z M 706.214844 336.996094 C 706.214844 329.519531 706.789062 322.261719 707.839844 315.378906 L 736.882812 315.378906 L 736.882812 358.605469 L 707.839844 358.605469 C 706.789062 351.722656 706.214844 344.464844 706.214844 336.988281 Z M 776.046875 302.648438 L 749.601562 302.648438 L 749.601562 262.6875 C 760.996094 266.910156 770.765625 282.175781 776.046875 302.648438 Z M 736.875 262.6875 L 736.875 302.648438 L 710.425781 302.648438 C 715.710938 282.175781 725.480469 266.910156 736.875 262.6875 Z M 736.875 371.347656 L 736.875 411.304688 C 725.480469 407.085938 715.710938 391.820312 710.425781 371.347656 Z M 749.601562 411.304688 L 749.601562 371.347656 L 776.046875 371.347656 C 770.765625 391.820312 760.996094 407.085938 749.601562 411.304688 Z M 749.601562 358.617188 L 749.601562 315.390625 L 778.648438 315.390625 C 779.699219 322.273438 780.269531 329.53125 780.269531 337.007812 C 780.269531 344.488281 779.699219 351.742188 778.648438 358.628906 L 749.601562 358.628906 Z M 791.535156 315.378906 L 815.574219 315.378906 C 817.621094 322.230469 818.746094 329.488281 818.746094 336.996094 C 818.746094 344.507812 817.632812 351.765625 815.574219 358.617188 L 791.535156 358.617188 C 792.480469 351.722656 792.988281 344.488281 792.988281 336.996094 C 792.988281 329.507812 792.480469 322.285156 791.535156 315.378906 Z M 810.441406 302.648438 L 789.203125 302.648438 C 786.082031 289.1875 781.152344 277.507812 774.925781 268.492188 C 790.222656 275.597656 802.75 287.679688 810.429688 302.648438 Z M 711.542969 268.492188 C 705.316406 277.507812 700.390625 289.1875 697.261719 302.648438 L 676.027344 302.648438 C 683.707031 287.679688 696.234375 275.597656 711.53125 268.492188 Z M 676.035156 371.347656 L 697.273438 371.347656 C 700.390625 384.808594 705.324219 396.488281 711.550781 405.503906 C 696.253906 398.398438 683.726562 386.3125 676.046875 371.347656 Z M 774.933594 405.503906 C 781.160156 396.488281 786.082031 384.808594 789.214844 371.347656 L 810.449219 371.347656 C 802.769531 386.3125 790.242188 398.398438 774.945312 405.503906 Z M 774.933594 405.503906 " fill-opacity="1" fill-rule="nonzero"/></g></svg>