<svg xmlns="http://www.w3.org/2000/svg" xmlns:xlink="http://www.w3.org/1999/xlink" width="1920" zoomAndPan="magnify" viewBox="0 0 1440 675.000002" height="900" preserveAspectRatio="xMidYMid meet" version="1.0"><defs><clipPath id="ae6e699e73"><path d="M 434.613281 261 L 823 261 L 823 536 L 434.613281 536 Z M 434.613281 261 " clip-rule="nonzero"/></clipPath><clipPath id="fc3cc9dde3"><path d="M 551 519 L 706 519 L 706 629.738281 L 551 629.738281 Z M 551 519 " clip-rule="nonzero"/></clipPath><clipPath id="392d5a67f8"><path d="M 434.613281 474 L 822 474 L 822 491 L 434.613281 491 Z M 434.613281 474 " clip-rule="nonzero"/></clipPath><clipPath id="4e9f9e3a77"><path d="M 655 133 L 853.242188 133 L 853.242188 451 L 655 451 Z M 655 133 " clip-rule="nonzero"/></clipPath><clipPath id="8cf53b849e"><path d="M 698 132.476562 L 810 132.476562 L 810 184 L 698 184 Z M 698 132.476562 " clip-rule="nonzero"/></clipPath></defs><g clip-path="url(#ae6e699e73)"><path fill="#d7b0d3" d="M 770.261719 535.054688 L 486.535156 535.054688 C 457.886719 535.054688 434.613281 509.882812 434.613281 479.023438 L 434.613281 317.359375 C 434.613281 302.617188 439.878906 288.609375 449.566406 278.078125 C 459.363281 267.335938 472.527344 261.332031 486.535156 261.332031 L 663.574219 261.332031 C 668 261.332031 671.683594 264.914062 671.683594 269.441406 C 671.683594 273.96875 668.105469 277.550781 663.574219 277.550781 L 486.535156 277.550781 C 477.160156 277.550781 468.316406 281.65625 461.574219 289.03125 C 454.625 296.613281 450.832031 306.722656 450.832031 317.464844 L 450.832031 479.128906 C 450.832031 501.140625 466.839844 518.941406 486.535156 518.941406 L 770.261719 518.941406 C 789.957031 518.941406 805.964844 501.035156 805.964844 479.128906 L 805.964844 442.375 C 805.964844 437.949219 809.546875 434.265625 814.074219 434.265625 C 818.605469 434.265625 822.183594 437.84375 822.183594 442.375 L 822.183594 479.023438 C 822.078125 509.988281 798.804688 535.054688 770.261719 535.054688 Z M 770.261719 535.054688 " fill-opacity="1" fill-rule="nonzero"/></g><g clip-path="url(#fc3cc9dde3)"><path fill="#d7b0d3" d="M 697.277344 629.523438 L 559.308594 629.523438 C 556.570312 629.523438 554.042969 628.15625 552.570312 625.945312 C 551.09375 623.628906 550.777344 620.785156 551.832031 618.363281 L 592.167969 523.890625 C 593.960938 519.785156 598.699219 517.886719 602.804688 519.679688 C 606.914062 521.46875 608.808594 526.207031 607.019531 530.316406 L 571.527344 613.515625 L 684.953125 613.515625 L 649.460938 530.316406 C 647.671875 526.207031 649.566406 521.46875 653.675781 519.679688 C 657.78125 517.886719 662.523438 519.785156 664.3125 523.890625 L 704.648438 618.363281 C 705.703125 620.890625 705.492188 623.734375 703.914062 625.945312 C 702.542969 628.15625 700.015625 629.523438 697.277344 629.523438 Z M 697.277344 629.523438 " fill-opacity="1" fill-rule="nonzero"/></g><g clip-path="url(#392d5a67f8)"><path fill="#d7b0d3" d="M 813.863281 490.925781 L 442.828125 490.925781 C 438.402344 490.925781 434.71875 487.34375 434.71875 482.816406 C 434.71875 478.289062 438.296875 474.707031 442.828125 474.707031 L 813.863281 474.707031 C 818.289062 474.707031 821.972656 478.289062 821.972656 482.816406 C 821.972656 487.34375 818.394531 490.925781 813.863281 490.925781 Z M 813.863281 490.925781 " fill-opacity="1" fill-rule="nonzero"/></g><g clip-path="url(#4e9f9e3a77)"><path fill="#d7b0d3" d="M 817.128906 450.484375 L 691.484375 450.484375 C 671.578125 450.484375 655.464844 432.367188 655.464844 410.042969 L 655.464844 173.496094 C 655.464844 151.167969 671.578125 133.054688 691.484375 133.054688 L 817.128906 133.054688 C 837.035156 133.054688 853.148438 151.167969 853.148438 173.496094 L 853.148438 410.042969 C 853.148438 432.261719 837.035156 450.484375 817.128906 450.484375 Z M 691.484375 149.273438 C 680.53125 149.273438 671.578125 160.121094 671.578125 173.496094 L 671.578125 410.042969 C 671.578125 423.417969 680.53125 434.265625 691.484375 434.265625 L 817.128906 434.265625 C 828.082031 434.265625 837.035156 423.417969 837.035156 410.042969 L 837.035156 173.496094 C 837.035156 160.121094 828.082031 149.273438 817.128906 149.273438 Z M 691.484375 149.273438 " fill-opacity="1" fill-rule="nonzero"/></g><g clip-path="url(#8cf53b849e)"><path fill="#d7b0d3" d="M 789.746094 183.289062 L 718.867188 183.289062 C 715.390625 183.289062 712.335938 181.078125 711.179688 177.8125 L 699.382812 143.691406 C 697.910156 139.476562 700.121094 134.84375 704.332031 133.371094 C 708.546875 131.894531 713.179688 134.105469 714.65625 138.320312 L 724.554688 166.964844 L 783.953125 166.964844 L 793.855469 138.320312 C 795.328125 134.105469 799.964844 131.894531 804.175781 133.371094 C 808.386719 134.84375 810.601562 139.476562 809.125 143.691406 L 797.328125 177.8125 C 796.277344 181.183594 793.222656 183.289062 789.746094 183.289062 Z M 789.746094 183.289062 " fill-opacity="1" fill-rule="nonzero"/></g><path fill="#d7b0d3" d="M 789.640625 420.46875 L 719.078125 420.46875 C 714.65625 420.46875 710.96875 416.886719 710.96875 412.359375 C 710.96875 407.828125 714.550781 404.25 719.078125 404.25 L 789.640625 404.25 C 794.066406 404.25 797.75 407.828125 797.75 412.359375 C 797.75 416.886719 794.066406 420.46875 789.640625 420.46875 Z M 789.640625 420.46875 " fill-opacity="1" fill-rule="nonzero"/></svg>